# xmcd CD database file
#
# Track frame offsets:
#	150
#	49280
#	72005
#	98257
#	126280
#	159242
#	181262
#	208447
#	229374
#	252862
#	268636
#
# Disc length: 4370 seconds
#
# Revision: 0
# Processed by: cddbd v1.5.2PL0 Copyright (c) Steve Scherf et al.
# Submitted via: CDex 1.51
#
DISCID=9711100b
DTITLE=B.B. King - The Thrill Of The Blues
DYEAR=1983
DGENRE=Blues
TTITLE0=B.B.`s Theme
TTITLE1=The Thrill Is Gone
TTITLE2=Guess Who
TTITLE3=Paying The Cost To Be The Boss
TTITLE4=All Over Again
TTITLE5=Every Day I Have The Blues
TTITLE6=Sweet Little Angel
TTITLE7=Why I Sing The Blues
TTITLE8=Darling You Know I love You
TTITLE9=Caldonia
TTITLE10=Jam
EXTD=YEAR: 1983
EXTT0=
EXTT1=
EXTT2=
EXTT3=
EXTT4=
EXTT5=
EXTT6=
EXTT7=
EXTT8=
EXTT9=
EXTT10=
PLAYORDER=
